<?xml version="1.0" encoding="UTF-8" standalone="no"?>
<!DOCTYPE svg PUBLIC "-//W3C//DTD SVG 1.1//EN" "http://www.w3.org/Graphics/SVG/1.1/DTD/svg11.dtd">
<svg width="100%" height="100%" viewBox="0 0 833 388" version="1.1" xmlns="http://www.w3.org/2000/svg" xmlns:xlink="http://www.w3.org/1999/xlink" xml:space="preserve" xmlns:serif="http://www.serif.com/" style="fill-rule:evenodd;clip-rule:evenodd;stroke-linejoin:round;stroke-miterlimit:2;">
    <g transform="matrix(1,0,0,1,-1790.39,-414)">
        <g transform="matrix(0.852028,0,0,1.01336,-1833.39,5.68434e-13)">
            <g transform="matrix(1.14326,0,0,0.961247,3293.21,-11867.5)">
                <g transform="matrix(0.776303,0,0,0.776303,-98.0256,6604.67)">
                    <g transform="matrix(1,0,0,1,1276.87,7923.13)">
                        <path d="M924.6,188L924.6,212.8C923.5,224.8 920.3,236.3 915.7,247.4C908.9,263.6 899.2,277.9 887.4,290.9C867.2,313 843.1,329.8 816.3,342.7C782.6,359 747,368.8 709.9,373.7C686,376.9 662,377.3 638.1,376.4C608.4,375.2 579.3,370.1 550.7,361.7C528.1,355 506.5,345.9 485.9,334.4C483,332.8 480.6,332.6 477.6,334.4C455.8,346.8 432.7,356.2 408.5,363C385.1,369.6 361.2,373.8 337,375.7C317.6,377.2 298.1,377.1 278.6,376C254.9,374.7 231.6,371 208.7,365.1C168.1,354.6 130.3,337.9 97.6,311.2C78.3,295.5 62.2,277 51.1,254.5C45.1,242.3 40.8,229.6 39.2,216C34.4,176.2 46,141.5 71.8,111.2C90,89.8 112,73.2 136.7,59.9C159.5,47.6 183.5,38.5 208.5,32.1C228.3,27 248.3,23.7 268.7,21.8C286.8,20.1 304.9,19.9 323,20.6C353.8,21.8 384.1,26.8 413.7,35.6C436.2,42.3 457.7,51.2 478.1,63C481.3,64.8 483.7,64.1 486.4,62.5C501.9,53.8 518.1,46.6 534.9,40.6C556.7,32.9 579,27.7 601.8,24.2C627,20.4 652.3,19.4 677.7,20.5C722,22.4 764.9,31.5 805.7,49.3C830.1,60 852.8,73.6 872.7,91.4C893.6,110.1 910.3,131.8 919.5,158.7C924.8,177.5 923.8,176.5 924.6,188Z" style="fill:rgb(43,38,34);fill-rule:nonzero;"/>
                    </g>
                    <g transform="matrix(1,0,0,1,1276.87,7923.13)">
                        <path d="M461.2,79.9C455.3,84.9 449.8,89.5 444.3,94.2C442.8,95.5 441.7,94.2 440.6,93.7C420.6,84.5 399.7,77.7 378.2,73.3C347.2,66.9 316,64.6 284.3,66.4C249.4,68.3 215.5,74.8 182.9,87.6C155,98.6 129.4,113.5 109,136.1C96.7,149.7 87.9,165.2 84.4,183.3C80,206.3 85.3,227.4 97.9,246.8C110.4,266.1 127.6,280.4 147,292.2C174.9,309 205.3,319.2 237.1,325.3C264.2,330.5 291.6,332.4 319.1,331.2C367.4,329.1 413.8,319 456.5,295.2C464.5,290.8 472.1,285.7 479.3,280.1C481,278.8 482,278.7 483.8,280C488.1,283.3 492.4,286.4 497,289.2C499.8,290.9 499.4,291.7 497.1,293.6C475.4,311.1 451.1,323.9 425,333.4C396,343.9 366,350 335.3,352.4C280,356.7 226.1,350.3 174.4,329.7C143.1,317.2 114.7,300 92.1,274.5C77.6,258.3 67.1,239.9 62.9,218.4C57.3,190.3 63.4,164.4 78.6,140.4C93.1,117.6 113.2,100.5 136.1,86.5C167.8,67.3 202.4,55.8 238.8,49.2C261.4,45.1 284.1,43.2 307,43.4C357.8,44 406.7,53.2 452.7,75.4C455.5,76.9 458.2,78.4 461.2,79.9Z" style="fill:rgb(232,0,50);fill-rule:nonzero;"/>
                    </g>
                    <g transform="matrix(1,0,0,1,1276.87,7923.13)">
                        <path d="M502.2,317.4C508,312.5 513.4,307.9 518.8,303.3C520.1,302.2 521.3,302.9 522.6,303.4C544,313.3 566.3,320.3 589.4,324.8C604.1,327.7 618.9,329.5 633.9,330.6C647,331.5 660.1,331.7 673.2,331.1C722.8,329 770.4,318.6 813.8,293.4C834.9,281.2 853.3,265.8 866.4,244.8C876.5,228.7 881.6,211.1 880,192.1C878.5,173.1 870.9,156.4 859.1,141.7C841.8,120 819.4,105.1 794.5,93.5C765.9,80.2 735.7,72.4 704.4,68.5C684.9,66.1 665.3,65 645.7,65.8C608.6,67.2 572.4,73.6 537.6,87.2C518.8,94.6 501,103.7 484.9,116.2C482.4,118.2 480.7,118.2 478.2,116.2C474.4,113.1 470.4,110.4 466.3,107.8C463.7,106.2 464.1,105.2 466.1,103.5C476.1,95.4 486.8,88.2 498,81.9C529.3,64.5 562.9,54 598.2,48.2C620.1,44.6 642.1,42.8 664.2,43.3C717.4,44.5 768.5,54.7 815.9,80C843.3,94.6 867.2,113.4 884.3,139.8C896.4,158.4 903,178.7 902.4,201C901.7,225.3 892.8,246.7 878.2,265.9C862.7,286.2 843.1,301.6 821,314.1C789.8,331.8 756.2,342.5 721,348.4C697.7,352.4 674.2,354.1 650.5,353.5C601,352.3 553.5,342.6 508.7,320.8C506.9,319.9 504.8,318.8 502.2,317.4Z" style="fill:rgb(0,131,62);fill-rule:nonzero;"/>
                    </g>
                    <g transform="matrix(1,0,0,1,1276.87,7923.13)">
                        <path d="M286.3,202.9C286.3,184.3 286.4,165.7 286.2,147.1C286.2,143.4 287,142.2 290.9,142.4C299.3,142.7 307.6,142.6 316,142.5C318.5,142.5 319.2,143.3 319.2,145.7C319.1,181.1 319.1,216.4 319.2,251.8C319.2,254 318.6,254.8 316.3,254.8C307.2,254.7 298.1,254.6 288.9,254.8C286.6,254.8 285.6,253.7 284.5,252.1C272.4,234.2 260.3,216.4 248.1,198.5C247.3,197.3 246.4,196.1 244.9,194L244.9,198.6C244.9,216.1 244.8,233.6 244.9,251.1C244.9,254 244.3,255 241.2,254.9C232.5,254.7 223.7,254.8 215,254.9C212.8,254.9 212,254.5 212,252.1C212.1,216.6 212.1,181.1 212,145.6C212,143.3 212.5,142.6 214.9,142.6C223.9,142.7 232.9,142.7 241.9,142.6C244.2,142.6 245.2,143.7 246.3,145.4C258.6,163.7 271,182 283.4,200.3C284.1,201.3 284.8,202.3 285.5,203.3C285.8,203 286,203 286.3,202.9Z" style="fill:rgb(255,219,0);fill-rule:nonzero;"/>
                    </g>
                    <g transform="matrix(1,0,0,1,1276.87,7923.13)">
                        <path d="M487.8,195.1L487.8,247.1C487.8,254.6 487.8,254.6 480.1,254.6C472.9,254.6 465.6,254.4 458.4,254.7C455.5,254.8 455,253.8 455,251.1C455.1,216.1 455.1,181.1 455,146.1C455,143.3 455.5,142.2 458.6,142.3C467.1,142.5 475.6,142.5 484.1,142.3C486.7,142.2 488.1,143.3 489.5,145.3C501.9,163.7 514.4,182.1 526.8,200.5C527.4,201.4 527.7,202.5 529.3,203.1L529.3,193.7C529.3,177.7 529.4,161.7 529.2,145.7C529.2,143.2 529.8,142.3 532.5,142.3C541.2,142.5 550,142.5 558.7,142.3C561.5,142.2 562,143.3 562,145.8C561.9,180.9 561.9,216 562,251.1C562,253.9 561.2,254.7 558.4,254.6C549.7,254.4 540.9,254.4 532.2,254.6C529.9,254.6 528.6,253.8 527.4,251.9C515.3,234 503.2,216.2 491,198.3C490.2,197.1 489.3,195.9 488.5,194.7C488.3,195 488.1,195.1 487.8,195.1Z" style="fill:rgb(255,219,0);fill-rule:nonzero;"/>
                    </g>
                    <g transform="matrix(1,0,0,1,1276.87,7923.13)">
                        <path d="M692,180C692,190.7 692.1,201.5 692,212.2C691.6,237.1 674.2,254.9 649.3,256.3C639.5,256.8 629.8,256.6 620.2,254.9C601.8,251.6 590,239.8 586.4,221.5C585.4,216.2 584.9,210.9 584.9,205.5C585,185.9 585,166.3 584.9,146.6C584.9,143.4 585.5,142.3 588.9,142.4C598,142.7 607.1,142.6 616.3,142.4C619.1,142.3 619.9,143.2 619.9,146C619.8,167.2 619.9,188.5 619.9,209.7C619.9,212.2 619.9,214.7 620.5,217.1C623,226.8 630.9,231.3 642.7,229.9C651.5,228.8 657.4,221.9 657.5,211.7C657.7,200 657.5,188.2 657.5,176.5C657.5,166.1 657.6,155.8 657.5,145.4C657.5,143.2 658,142.3 660.4,142.4C670,142.5 679.6,142.5 689.3,142.4C691.7,142.4 692.2,143.3 692.2,145.4C692,157 692,168.5 692,180Z" style="fill:rgb(255,219,0);fill-rule:nonzero;"/>
                    </g>
                    <g transform="matrix(1,0,0,1,1276.87,7923.13)">
                        <path d="M386.9,142.5C403.1,142.5 419.4,142.6 435.6,142.4C438.6,142.4 439.4,143.3 439.3,146.2C439.1,153.1 439.1,159.9 439.3,166.8C439.4,169.7 438.7,170.7 435.6,170.6C426.4,170.4 417.1,170.7 407.9,170.4C404.9,170.3 403.9,171 404,174.2C404.2,199.7 404,225.2 404.2,250.7C404.2,254.1 403.3,254.8 400.1,254.7C391.1,254.5 382.1,254.5 373.1,254.7C370,254.8 369.5,253.7 369.5,250.9C369.6,225.4 369.5,199.9 369.6,174.4C369.6,171 368.6,170.3 365.4,170.4C356,170.6 346.7,170.4 337.3,170.5C335,170.5 334.3,169.9 334.3,167.6C334.4,160.2 334.4,152.9 334.2,145.5C334.1,142.9 335.1,142.4 337.4,142.4C353.9,142.6 370.4,142.5 386.9,142.5Z" style="fill:rgb(255,219,0);fill-rule:nonzero;"/>
                    </g>
                    <g transform="matrix(1,0,0,1,1276.87,7923.13)">
                        <path d="M751.3,198.5C751.3,216.1 751.2,233.7 751.4,251.4C751.4,253.9 750.9,254.8 748.2,254.8C738.7,254.6 729.2,254.6 719.7,254.8C717.2,254.8 716.6,254.1 716.6,251.6C716.7,216.2 716.7,180.9 716.6,145.5C716.6,143.2 717.2,142.5 719.6,142.5C729.2,142.6 738.8,142.6 748.5,142.5C751,142.5 751.6,143.3 751.6,145.7C751.3,163.3 751.3,180.9 751.3,198.5Z" style="fill:rgb(255,219,0);fill-rule:nonzero;"/>
                    </g>
                </g>
                <g transform="matrix(2.93106,0,0,2.93106,-6133.87,8818.15)">
                    <g transform="matrix(0.319015,0,0,0.344631,1012.14,-2312.31)">
                        <rect x="4302.76" y="10836.8" width="800" height="163.958" style="fill:rgb(43,38,34);"/>
                        <path d="M5120.33,10836.8C5120.33,10827.8 5112.46,10820.6 5102.76,10820.6L4302.76,10820.6C4293.06,10820.6 4285.19,10827.8 4285.19,10836.8L4285.19,11000.8C4285.19,11009.8 4293.06,11017 4302.76,11017L5102.76,11017C5112.46,11017 5120.33,11009.8 5120.33,11000.8L5120.33,10836.8ZM5102.76,10836.8L4302.76,10836.8L4302.76,11000.8L5102.76,11000.8L5102.76,10836.8Z" style="fill:rgb(43,38,34);"/>
                    </g>
                    <path d="M2379.18,1423.79L2379.18,1476.57C2379.18,1478.43 2379.91,1480.2 2381.22,1481.52C2382.53,1482.83 2384.31,1483.56 2386.16,1483.56C2391.48,1483.56 2410.29,1483.56 2410.29,1483.56C2413.78,1483.56 2417.67,1483.01 2421.97,1481.86C2425.55,1480.9 2428.93,1479.03 2432.05,1476.15C2435.03,1473.4 2437.38,1470.01 2439.06,1465.94C2440.62,1462.16 2441.51,1456.85 2441.51,1449.99C2441.51,1445.69 2440.99,1441.62 2439.95,1437.77C2438.84,1433.61 2437.02,1429.97 2434.54,1426.84C2431.95,1423.58 2428.69,1421.06 2424.73,1419.32C2421.06,1417.7 2416.25,1416.79 2410.29,1416.79C2410.29,1416.79 2391.5,1416.79 2386.18,1416.79C2384.32,1416.79 2382.54,1417.53 2381.23,1418.84C2379.91,1420.16 2379.18,1421.94 2379.18,1423.79ZM2384.78,1423.79C2384.78,1423.42 2384.93,1423.07 2385.19,1422.81C2385.45,1422.55 2385.8,1422.4 2386.18,1422.4C2391.5,1422.4 2410.29,1422.4 2410.29,1422.4C2415.31,1422.4 2419.38,1423.08 2422.47,1424.44C2425.57,1425.81 2428.12,1427.77 2430.14,1430.32C2432.17,1432.87 2433.63,1435.84 2434.54,1439.23C2435.45,1442.61 2435.91,1446.2 2435.91,1449.99C2435.91,1455.93 2435.23,1460.53 2433.88,1463.8C2432.53,1467.08 2430.65,1469.82 2428.25,1472.03C2425.85,1474.24 2423.27,1475.71 2420.52,1476.44C2416.75,1477.45 2413.34,1477.96 2410.29,1477.96L2386.16,1477.96C2385.8,1477.96 2385.45,1477.81 2385.19,1477.55C2384.93,1477.29 2384.78,1476.94 2384.78,1476.57C2384.78,1468.89 2384.78,1431.51 2384.78,1423.79ZM2403.35,1434.98C2402.58,1434.98 2401.95,1435.61 2401.95,1436.38C2401.95,1441.46 2401.95,1458.89 2401.95,1463.95C2401.95,1464.72 2402.57,1465.34 2403.34,1465.34C2404.56,1465.34 2406.16,1465.34 2406.16,1465.34C2409.74,1465.34 2412.3,1464.94 2413.81,1464.14C2415.33,1463.35 2416.51,1461.96 2417.37,1459.98C2418.23,1457.99 2418.66,1454.78 2418.66,1450.33C2418.66,1444.44 2417.7,1440.41 2415.78,1438.24C2413.86,1436.07 2410.68,1434.98 2406.23,1434.98L2403.35,1434.98ZM2407.55,1440.61C2409.34,1440.69 2410.73,1440.99 2411.58,1441.95C2412.9,1443.44 2413.06,1446.3 2413.06,1450.33C2413.06,1453.74 2412.89,1456.23 2412.23,1457.75C2411.95,1458.39 2411.69,1458.93 2411.21,1459.18C2410.42,1459.59 2409.19,1459.7 2407.55,1459.72L2407.55,1440.61Z" style="fill:rgb(43,38,34);"/>
                    <path d="M2384.78,1423.79C2384.78,1423.42 2384.93,1423.07 2385.19,1422.81C2385.45,1422.55 2385.8,1422.4 2386.18,1422.4C2391.5,1422.4 2410.29,1422.4 2410.29,1422.4C2415.31,1422.4 2419.38,1423.08 2422.47,1424.44C2425.57,1425.81 2428.12,1427.77 2430.14,1430.32C2432.17,1432.87 2433.63,1435.84 2434.54,1439.23C2435.45,1442.61 2435.91,1446.2 2435.91,1449.99C2435.91,1455.93 2435.23,1460.53 2433.88,1463.8C2432.53,1467.08 2430.65,1469.82 2428.25,1472.03C2425.85,1474.24 2423.27,1475.71 2420.52,1476.44C2416.75,1477.45 2413.34,1477.96 2410.29,1477.96L2386.16,1477.96C2385.8,1477.96 2385.45,1477.81 2385.19,1477.55C2384.93,1477.29 2384.78,1476.94 2384.78,1476.57C2384.78,1468.89 2384.78,1431.51 2384.78,1423.79ZM2403.35,1434.98C2402.58,1434.98 2401.95,1435.61 2401.95,1436.38C2401.95,1441.46 2401.95,1458.89 2401.95,1463.95C2401.95,1464.72 2402.57,1465.34 2403.34,1465.34C2404.56,1465.34 2406.16,1465.34 2406.16,1465.34C2409.74,1465.34 2412.3,1464.94 2413.81,1464.14C2415.33,1463.35 2416.51,1461.96 2417.37,1459.98C2418.23,1457.99 2418.66,1454.78 2418.66,1450.33C2418.66,1444.44 2417.7,1440.41 2415.78,1438.24C2413.86,1436.07 2410.68,1434.98 2406.23,1434.98L2403.35,1434.98Z" style="fill:rgb(255,221,0);fill-rule:nonzero;"/>
                    <path d="M2460.45,1474.39L2471.59,1474.39L2472.87,1478.6C2473.76,1481.55 2476.48,1483.56 2479.56,1483.56L2494.97,1483.56C2497.16,1483.56 2499.21,1482.49 2500.45,1480.69C2501.7,1478.89 2501.98,1476.6 2501.21,1474.55L2481.22,1421.34C2480.19,1418.61 2477.57,1416.79 2474.65,1416.79C2471.42,1416.79 2461.11,1416.79 2457.88,1416.79C2454.96,1416.79 2452.34,1418.61 2451.31,1421.34L2431.3,1474.57C2430.54,1476.62 2430.82,1478.9 2432.06,1480.7C2433.3,1482.49 2435.35,1483.56 2437.53,1483.56L2452.5,1483.56C2455.61,1483.56 2458.34,1481.52 2459.22,1478.54L2460.45,1474.39ZM2476.05,1469.77C2475.87,1469.19 2475.33,1468.79 2474.72,1468.79L2457.31,1468.79C2456.69,1468.79 2456.14,1469.2 2455.96,1469.8C2455.44,1471.56 2454.37,1475.18 2453.85,1476.95C2453.67,1477.55 2453.12,1477.96 2452.5,1477.96C2449.52,1477.96 2441.01,1477.96 2437.53,1477.96C2437.19,1477.96 2436.87,1477.79 2436.67,1477.51C2436.47,1477.23 2436.43,1476.87 2436.55,1476.54C2439.53,1468.61 2454.13,1429.78 2456.56,1423.31C2456.76,1422.76 2457.29,1422.4 2457.88,1422.4C2461.11,1422.4 2471.42,1422.4 2474.65,1422.4C2475.24,1422.4 2475.77,1422.76 2475.97,1423.32C2478.4,1429.79 2492.97,1468.55 2495.97,1476.52C2496.09,1476.85 2496.05,1477.21 2495.85,1477.5C2495.65,1477.79 2495.32,1477.96 2494.97,1477.96C2491.4,1477.96 2482.57,1477.96 2479.56,1477.96C2478.95,1477.96 2478.41,1477.56 2478.23,1476.98C2477.7,1475.21 2476.58,1471.53 2476.05,1469.77ZM2471.26,1456.77C2471.48,1456.77 2471.68,1456.67 2471.81,1456.5C2471.94,1456.32 2471.98,1456.1 2471.92,1455.89C2470.92,1452.65 2467.47,1441.42 2466.39,1437.88C2466.34,1437.73 2466.21,1437.63 2466.06,1437.63C2465.9,1437.63 2465.77,1437.73 2465.73,1437.88C2464.65,1441.41 2461.26,1452.59 2460.26,1455.86C2460.2,1456.08 2460.24,1456.31 2460.37,1456.49C2460.5,1456.67 2460.71,1456.77 2460.93,1456.77C2463.22,1456.77 2469,1456.77 2471.26,1456.77Z" style="fill:rgb(43,38,34);"/>
                    <path d="M2476.05,1469.77C2475.87,1469.19 2475.33,1468.79 2474.72,1468.79L2457.31,1468.79C2456.69,1468.79 2456.14,1469.2 2455.96,1469.8C2455.44,1471.56 2454.37,1475.18 2453.85,1476.95C2453.67,1477.55 2453.12,1477.96 2452.5,1477.96C2449.52,1477.96 2441.01,1477.96 2437.53,1477.96C2437.19,1477.96 2436.87,1477.79 2436.67,1477.51C2436.47,1477.23 2436.43,1476.87 2436.55,1476.54C2439.53,1468.61 2454.13,1429.78 2456.56,1423.31C2456.76,1422.76 2457.29,1422.4 2457.88,1422.4C2461.11,1422.4 2471.42,1422.4 2474.65,1422.4C2475.24,1422.4 2475.77,1422.76 2475.97,1423.32C2478.4,1429.79 2492.97,1468.55 2495.97,1476.52C2496.09,1476.85 2496.05,1477.21 2495.85,1477.5C2495.65,1477.79 2495.32,1477.96 2494.97,1477.96C2491.4,1477.96 2482.57,1477.96 2479.56,1477.96C2478.95,1477.96 2478.41,1477.56 2478.23,1476.98C2477.7,1475.21 2476.58,1471.53 2476.05,1469.77ZM2471.26,1456.77C2471.48,1456.77 2471.68,1456.67 2471.81,1456.5C2471.94,1456.32 2471.98,1456.1 2471.92,1455.89C2470.92,1452.65 2467.47,1441.42 2466.39,1437.88C2466.34,1437.73 2466.21,1437.63 2466.06,1437.63C2465.9,1437.63 2465.77,1437.73 2465.73,1437.88C2464.65,1441.41 2461.26,1452.59 2460.26,1455.86C2460.2,1456.08 2460.24,1456.31 2460.37,1456.49C2460.5,1456.67 2460.71,1456.77 2460.93,1456.77C2463.22,1456.77 2469,1456.77 2471.26,1456.77Z" style="fill:rgb(255,221,0);fill-rule:nonzero;"/>
                    <path d="M2525.04,1466.8L2532.11,1479.88C2533.34,1482.15 2535.71,1483.56 2538.29,1483.56L2555.71,1483.56C2557.9,1483.56 2559.94,1482.42 2561.08,1480.54C2562.23,1478.67 2562.31,1476.33 2561.3,1474.38C2561.3,1474.38 2553.52,1459.31 2553.52,1459.31C2553,1458.28 2552.01,1456.79 2550.49,1454.9L2550.12,1454.45C2552.18,1452.83 2553.87,1450.89 2555.19,1448.64C2556.98,1445.6 2557.93,1442.01 2557.93,1437.82C2557.93,1433.02 2556.68,1428.96 2554.35,1425.62C2551.91,1422.11 2548.69,1419.73 2544.7,1418.43C2541.49,1417.39 2536.87,1416.79 2530.8,1416.79L2503.58,1416.79C2499.72,1416.79 2496.59,1419.92 2496.59,1423.78C2496.59,1431.47 2496.59,1468.83 2496.59,1476.56C2496.59,1480.43 2499.72,1483.56 2503.59,1483.56L2518.04,1483.56C2519.9,1483.56 2521.68,1482.83 2522.99,1481.51C2524.3,1480.2 2525.04,1478.42 2525.04,1476.57L2525.04,1466.8ZM2503.59,1477.96C2502.82,1477.96 2502.19,1477.33 2502.19,1476.56C2502.19,1468.83 2502.19,1431.47 2502.19,1423.78C2502.19,1423.02 2502.81,1422.4 2503.58,1422.4C2509.3,1422.4 2530.8,1422.4 2530.8,1422.4C2536.11,1422.4 2540.17,1422.85 2542.97,1423.76C2545.78,1424.67 2548.04,1426.36 2549.75,1428.82C2551.47,1431.29 2552.33,1434.29 2552.33,1437.82C2552.33,1440.91 2551.67,1443.57 2550.36,1445.8C2549.05,1448.04 2547.24,1449.85 2544.94,1451.24C2543.9,1451.86 2542.59,1452.41 2541.01,1452.89C2540.74,1452.97 2540.54,1453.22 2540.53,1453.51C2540.51,1453.8 2540.67,1454.08 2540.94,1454.19C2541.97,1454.62 2542.79,1455.06 2543.38,1455.49C2544.01,1455.94 2544.92,1456.91 2546.12,1458.41C2547.32,1459.9 2548.12,1461.05 2548.53,1461.86C2548.53,1461.86 2554.5,1473.43 2556.32,1476.95C2556.43,1477.17 2556.42,1477.42 2556.3,1477.63C2556.17,1477.83 2555.95,1477.96 2555.71,1477.96C2552.17,1477.96 2541.39,1477.96 2538.29,1477.96C2537.77,1477.96 2537.29,1477.67 2537.04,1477.22C2535.27,1473.94 2528.27,1460.98 2528.27,1460.98C2527.1,1458.78 2526.07,1457.35 2525.16,1456.7C2523.92,1455.84 2522.52,1455.41 2520.95,1455.41L2520.49,1455.41C2519.91,1455.41 2519.43,1455.88 2519.43,1456.46C2519.43,1460.14 2519.43,1472.4 2519.43,1476.57C2519.43,1476.93 2519.29,1477.29 2519.03,1477.55C2518.77,1477.81 2518.41,1477.96 2518.04,1477.96C2514.81,1477.96 2506.83,1477.96 2503.59,1477.96ZM2519.43,1443.51C2519.43,1443.88 2519.58,1444.24 2519.84,1444.5C2520.11,1444.76 2520.46,1444.91 2520.83,1444.91C2522.93,1444.91 2526.67,1444.91 2526.67,1444.91C2527.46,1444.91 2528.97,1444.66 2531.22,1444.15C2532.36,1443.92 2533.29,1443.34 2534.01,1442.41C2534.73,1441.47 2535.09,1440.4 2535.09,1439.19C2535.09,1437.39 2534.52,1436.02 2533.38,1435.06C2532.24,1434.1 2530.11,1433.62 2526.98,1433.62L2520.85,1433.62C2520.47,1433.62 2520.11,1433.77 2519.85,1434.03C2519.58,1434.3 2519.43,1434.65 2519.43,1435.03L2519.43,1443.51ZM2525.04,1439.22L2525.04,1439.31L2526.67,1439.31C2526.86,1439.31 2527.1,1439.28 2527.39,1439.23L2526.98,1439.22L2525.04,1439.22Z" style="fill:rgb(43,38,34);"/>
                    <path d="M2503.59,1477.96C2502.82,1477.96 2502.19,1477.33 2502.19,1476.56C2502.19,1468.83 2502.19,1431.47 2502.19,1423.78C2502.19,1423.02 2502.81,1422.4 2503.58,1422.4C2509.3,1422.4 2530.8,1422.4 2530.8,1422.4C2536.11,1422.4 2540.17,1422.85 2542.97,1423.76C2545.78,1424.67 2548.04,1426.36 2549.75,1428.82C2551.47,1431.29 2552.33,1434.29 2552.33,1437.82C2552.33,1440.91 2551.67,1443.57 2550.36,1445.8C2549.05,1448.04 2547.24,1449.85 2544.94,1451.24C2543.9,1451.86 2542.59,1452.41 2541.01,1452.89C2540.74,1452.97 2540.54,1453.22 2540.53,1453.51C2540.51,1453.8 2540.67,1454.08 2540.94,1454.19C2541.97,1454.62 2542.79,1455.06 2543.38,1455.49C2544.01,1455.94 2544.92,1456.91 2546.12,1458.41C2547.32,1459.9 2548.12,1461.05 2548.53,1461.86C2548.53,1461.86 2554.5,1473.43 2556.32,1476.95C2556.43,1477.17 2556.42,1477.42 2556.3,1477.63C2556.17,1477.83 2555.95,1477.96 2555.71,1477.96C2552.17,1477.96 2541.39,1477.96 2538.29,1477.96C2537.77,1477.96 2537.29,1477.67 2537.04,1477.22C2535.27,1473.94 2528.27,1460.98 2528.27,1460.98C2527.1,1458.78 2526.07,1457.35 2525.16,1456.7C2523.92,1455.84 2522.52,1455.41 2520.95,1455.41L2520.49,1455.41C2519.91,1455.41 2519.43,1455.88 2519.43,1456.46C2519.43,1460.14 2519.43,1472.4 2519.43,1476.57C2519.43,1476.93 2519.29,1477.29 2519.03,1477.55C2518.77,1477.81 2518.41,1477.96 2518.04,1477.96L2503.59,1477.96ZM2519.43,1443.51C2519.43,1443.88 2519.58,1444.24 2519.84,1444.5C2520.11,1444.76 2520.46,1444.91 2520.83,1444.91C2522.93,1444.91 2526.67,1444.91 2526.67,1444.91C2527.46,1444.91 2528.97,1444.66 2531.22,1444.15C2532.36,1443.92 2533.29,1443.34 2534.01,1442.41C2534.73,1441.47 2535.09,1440.4 2535.09,1439.19C2535.09,1437.39 2534.52,1436.02 2533.38,1435.06C2532.24,1434.1 2530.11,1433.62 2526.98,1433.62L2520.85,1433.62C2520.47,1433.62 2520.11,1433.77 2519.85,1434.03C2519.58,1434.3 2519.43,1434.65 2519.43,1435.03L2519.43,1443.51Z" style="fill:rgb(255,221,0);fill-rule:nonzero;"/>
                    <path d="M2569.66,1441.72L2569.66,1476.54C2569.66,1480.42 2572.8,1483.56 2576.67,1483.56L2591.03,1483.56C2594.9,1483.56 2598.03,1480.43 2598.03,1476.56L2598.03,1441.72L2608.52,1441.72C2612.4,1441.72 2615.54,1438.58 2615.54,1434.7L2615.54,1423.81C2615.54,1419.94 2612.4,1416.79 2608.53,1416.79L2559.17,1416.79C2555.29,1416.79 2552.15,1419.94 2552.15,1423.82L2552.15,1434.73C2552.15,1436.58 2552.88,1438.36 2554.2,1439.67C2555.51,1440.99 2557.29,1441.72 2559.14,1441.72L2569.66,1441.72ZM2557.75,1423.82C2557.75,1423.03 2558.39,1422.4 2559.17,1422.4C2566.61,1422.4 2601.1,1422.4 2608.53,1422.4C2609.3,1422.4 2609.94,1423.03 2609.94,1423.81C2609.94,1426.44 2609.94,1432.07 2609.94,1434.7C2609.94,1435.48 2609.3,1436.12 2608.52,1436.12C2605.24,1436.12 2597.13,1436.12 2593.84,1436.12C2593.06,1436.12 2592.43,1436.75 2592.43,1437.53C2592.43,1443.94 2592.43,1470.18 2592.43,1476.56C2592.43,1477.33 2591.8,1477.96 2591.03,1477.96C2587.81,1477.96 2579.91,1477.96 2576.67,1477.96C2575.89,1477.96 2575.26,1477.33 2575.26,1476.54C2575.26,1470.14 2575.26,1443.93 2575.26,1437.53C2575.26,1437.16 2575.11,1436.8 2574.85,1436.53C2574.58,1436.27 2574.22,1436.12 2573.85,1436.12C2570.56,1436.12 2562.41,1436.12 2559.14,1436.12C2558.77,1436.12 2558.42,1435.97 2558.16,1435.71C2557.9,1435.45 2557.75,1435.1 2557.75,1434.73L2557.75,1423.82Z" style="fill:rgb(43,38,34);"/>
                    <path d="M2557.75,1423.82C2557.75,1423.03 2558.39,1422.4 2559.17,1422.4C2566.61,1422.4 2601.1,1422.4 2608.53,1422.4C2609.3,1422.4 2609.94,1423.03 2609.94,1423.81C2609.94,1426.44 2609.94,1432.07 2609.94,1434.7C2609.94,1435.48 2609.3,1436.12 2608.52,1436.12C2605.24,1436.12 2597.13,1436.12 2593.84,1436.12C2593.06,1436.12 2592.43,1436.75 2592.43,1437.53C2592.43,1443.94 2592.43,1470.18 2592.43,1476.56C2592.43,1477.33 2591.8,1477.96 2591.03,1477.96L2576.67,1477.96C2575.89,1477.96 2575.26,1477.33 2575.26,1476.54C2575.26,1470.14 2575.26,1443.93 2575.26,1437.53C2575.26,1437.16 2575.11,1436.8 2574.85,1436.53C2574.58,1436.27 2574.22,1436.12 2573.85,1436.12C2570.56,1436.12 2562.41,1436.12 2559.14,1436.12C2558.77,1436.12 2558.42,1435.97 2558.16,1435.71C2557.9,1435.45 2557.75,1435.1 2557.75,1434.73L2557.75,1423.82Z" style="fill:rgb(255,221,0);fill-rule:nonzero;"/>
                    <path d="M2619.24,1453.68L2615.8,1453.9C2613.88,1454.02 2612.08,1454.94 2610.85,1456.44C2609.62,1457.94 2609.07,1459.88 2609.33,1461.8C2609.33,1461.81 2609.33,1461.82 2609.33,1461.83C2610.2,1468.06 2612.76,1473.24 2616.93,1477.41C2621.33,1481.81 2629.1,1484.51 2640.52,1484.51C2646.82,1484.51 2652.02,1483.52 2656.15,1481.71C2660.74,1479.69 2664.29,1476.71 2666.85,1472.81C2669.43,1468.86 2670.72,1464.55 2670.72,1459.88C2670.72,1455.78 2669.7,1452.08 2667.7,1448.76C2666.55,1446.86 2665.03,1445.12 2663.11,1443.56C2664.71,1443.23 2666.16,1442.34 2667.19,1441.04C2668.43,1439.47 2668.93,1437.44 2668.58,1435.47C2668.58,1435.47 2668.58,1435.46 2668.58,1435.46C2667.39,1428.85 2664.39,1424.03 2659.89,1420.84C2655.4,1417.66 2648.95,1415.85 2640.41,1415.85C2633.66,1415.85 2628.37,1416.8 2624.5,1418.5C2620.06,1420.44 2616.8,1423.17 2614.59,1426.56C2612.31,1430.06 2611.19,1433.78 2611.19,1437.71C2611.19,1443.77 2613.46,1448.75 2617.97,1452.66C2618.37,1453.01 2618.79,1453.35 2619.24,1453.68ZM2614.88,1461.05C2614.83,1460.67 2614.94,1460.29 2615.18,1460C2615.42,1459.7 2615.78,1459.52 2616.16,1459.49C2619.32,1459.29 2626.78,1458.82 2629.78,1458.63C2630.48,1458.59 2631.11,1459.08 2631.25,1459.77C2631.64,1461.84 2632.29,1463.45 2633.21,1464.62C2634.98,1466.87 2637.5,1467.99 2640.79,1467.99C2643.24,1467.99 2645.13,1467.42 2646.45,1466.27C2647.78,1465.12 2648.44,1463.78 2648.44,1462.27C2648.44,1460.83 2647.81,1459.54 2646.55,1458.4C2645.28,1457.27 2642.35,1456.19 2637.76,1455.18C2630.23,1453.49 2624.86,1451.24 2621.65,1448.43C2618.41,1445.63 2616.8,1442.06 2616.8,1437.71C2616.8,1434.86 2617.62,1432.16 2619.28,1429.62C2620.93,1427.08 2623.42,1425.08 2626.75,1423.63C2630.07,1422.18 2634.62,1421.45 2640.41,1421.45C2647.51,1421.45 2652.92,1422.77 2656.65,1425.41C2660.03,1427.81 2662.17,1431.49 2663.07,1436.46C2663.14,1436.85 2663.03,1437.26 2662.79,1437.57C2662.54,1437.88 2662.17,1438.08 2661.77,1438.1C2658.57,1438.29 2651.2,1438.72 2648.31,1438.89C2647.64,1438.93 2647.03,1438.49 2646.87,1437.84C2646.39,1435.9 2645.57,1434.46 2644.41,1433.5C2643.03,1432.37 2641.13,1431.8 2638.7,1431.8C2636.71,1431.8 2635.2,1432.22 2634.19,1433.07C2633.18,1433.91 2632.68,1434.94 2632.68,1436.16C2632.68,1437.04 2633.09,1437.84 2633.93,1438.54C2634.74,1439.28 2636.66,1439.96 2639.69,1440.59C2647.19,1442.21 2652.57,1443.84 2655.81,1445.5C2659.06,1447.15 2661.42,1449.21 2662.9,1451.66C2664.38,1454.11 2665.12,1456.85 2665.12,1459.88C2665.12,1463.44 2664.13,1466.73 2662.16,1469.73C2660.19,1472.74 2657.44,1475.02 2653.9,1476.58C2650.36,1478.13 2645.9,1478.91 2640.52,1478.91C2631.07,1478.91 2624.53,1477.09 2620.89,1473.45C2617.58,1470.13 2615.57,1466 2614.88,1461.05ZM2637.41,1460.84C2637.47,1460.96 2637.54,1461.07 2637.62,1461.16C2638.35,1462.08 2639.45,1462.39 2640.79,1462.39C2641.4,1462.39 2641.94,1462.41 2642.36,1462.26C2641.42,1461.72 2639.73,1461.35 2637.41,1460.84Z" style="fill:rgb(43,38,34);"/>
                    <path d="M2614.88,1461.05C2614.83,1460.67 2614.94,1460.29 2615.18,1460C2615.42,1459.7 2615.78,1459.52 2616.16,1459.49C2619.32,1459.29 2626.78,1458.82 2629.78,1458.63C2630.48,1458.59 2631.11,1459.08 2631.25,1459.77C2631.64,1461.84 2632.29,1463.45 2633.21,1464.62C2634.98,1466.87 2637.5,1467.99 2640.79,1467.99C2643.24,1467.99 2645.13,1467.42 2646.45,1466.27C2647.78,1465.12 2648.44,1463.78 2648.44,1462.27C2648.44,1460.83 2647.81,1459.54 2646.55,1458.4C2645.28,1457.27 2642.35,1456.19 2637.76,1455.18C2630.23,1453.49 2624.86,1451.24 2621.65,1448.43C2618.41,1445.63 2616.8,1442.06 2616.8,1437.71C2616.8,1434.86 2617.62,1432.16 2619.28,1429.62C2620.93,1427.08 2623.42,1425.08 2626.75,1423.63C2630.07,1422.18 2634.62,1421.45 2640.41,1421.45C2647.51,1421.45 2652.92,1422.77 2656.65,1425.41C2660.03,1427.81 2662.17,1431.49 2663.07,1436.46C2663.14,1436.85 2663.03,1437.26 2662.79,1437.57C2662.54,1437.88 2662.17,1438.08 2661.77,1438.1C2658.57,1438.29 2651.2,1438.72 2648.31,1438.89C2647.64,1438.93 2647.03,1438.49 2646.87,1437.84C2646.39,1435.9 2645.57,1434.46 2644.41,1433.5C2643.03,1432.37 2641.13,1431.8 2638.7,1431.8C2636.71,1431.8 2635.2,1432.22 2634.19,1433.07C2633.18,1433.91 2632.68,1434.94 2632.68,1436.16C2632.68,1437.04 2633.09,1437.84 2633.93,1438.54C2634.74,1439.28 2636.66,1439.96 2639.69,1440.59C2647.19,1442.21 2652.57,1443.84 2655.81,1445.5C2659.06,1447.15 2661.42,1449.21 2662.9,1451.66C2664.38,1454.11 2665.12,1456.85 2665.12,1459.88C2665.12,1463.44 2664.13,1466.73 2662.16,1469.73C2660.19,1472.74 2657.44,1475.02 2653.9,1476.58C2650.36,1478.13 2645.9,1478.91 2640.52,1478.91C2631.07,1478.91 2624.53,1477.09 2620.89,1473.45C2617.58,1470.13 2615.57,1466 2614.88,1461.05Z" style="fill:rgb(255,221,0);fill-rule:nonzero;"/>
                </g>
            </g>
        </g>
    </g>
</svg>
